<svg xmlns="http://www.w3.org/2000/svg" width="183.067" height="201.34" viewBox="0 0 183.067 201.34">
  <g id="Group_2" data-name="Group 2" transform="translate(-459.324 -1691.447)">
    <path id="Path_11" data-name="Path 11" d="M605.429,1769.633h59.679l-16.922,44.333H588.507Z" transform="translate(-37.979 -22.901)" fill-rule="evenodd"/>
    <path id="Path_12" data-name="Path 12" d="M605.429,1769.633h59.679l-16.922,44.333H588.507Z" transform="translate(-37.979 -22.901)" fill="none" stroke="#000" stroke-linecap="round" stroke-linejoin="round" stroke-width="1.445"/>
    <rect id="Rectangle_17" data-name="Rectangle 17" width="32.646" height="3.41" rx="1.705" transform="translate(558.549 1787.657)" fill="#c8c5e2"/>
    <rect id="Rectangle_18" data-name="Rectangle 18" width="32.646" height="3.41" rx="1.705" transform="translate(558.549 1787.657)" fill="none" stroke="#000" stroke-linecap="round" stroke-linejoin="round" stroke-width="1.453"/>
    <rect id="Rectangle_19" data-name="Rectangle 19" width="32.646" height="3.41" rx="1.705" transform="translate(577.565 1787.657)" fill="#c8c5e2"/>
    <rect id="Rectangle_20" data-name="Rectangle 20" width="32.646" height="3.41" rx="1.705" transform="translate(577.565 1787.657)" fill="none" stroke="#000" stroke-linecap="round" stroke-linejoin="round" stroke-width="1.453"/>
    <path id="Path_13" data-name="Path 13" d="M637.246,1931.613l-6.092-14.581-19.433,5.287,6.82,13.641c3.772,5.329,9.938,6.394,16,4.425C637.659,1939.37,637.246,1934.271,637.246,1931.613Z" transform="translate(-44.842 -66.48)" fill="#e2d1c6" fill-rule="evenodd"/>
    <path id="Path_14" data-name="Path 14" d="M637.246,1931.613l-6.092-14.581-19.433,5.287,6.82,13.641c3.772,5.329,9.938,6.394,16,4.425C637.659,1939.37,637.246,1934.271,637.246,1931.613Z" transform="translate(-44.842 -66.48)" fill="none" stroke="#000" stroke-linecap="round" stroke-linejoin="round" stroke-width="1.453"/>
    <path id="Path_15" data-name="Path 15" d="M532.461,1927.825l3.111-3.019c2.012-2.456,5.411-7.8,5.312-10.769-.206-6.187,4.58-4.344,5.214-1.125,3.545,8.195,3.624,8.3,12.585,5.34,3.894-1.287,6.725-.19,6.042,4.5-.816,5.609,15.2,16.045,11.849,25.964a2.491,2.491,0,0,0-1.125,1.364Z" transform="translate(-21.409 -64.384)" fill="#ff0" fill-rule="evenodd"/>
    <path id="Path_16" data-name="Path 16" d="M532.461,1927.825l3.111-3.02c2.012-2.456,5.411-7.8,5.312-10.768-.206-6.187,4.58-4.344,5.214-1.125,3.546,8.195,3.624,8.3,12.585,5.34,3.894-1.286,6.725-.189,6.042,4.5-.816,5.609,15.2,16.044,11.849,25.964a2.492,2.492,0,0,0-1.125,1.363Z" transform="translate(-21.409 -64.384)" fill="none" stroke="#000" stroke-linecap="round" stroke-linejoin="round" stroke-width="1.453"/>
    <path id="Path_17" data-name="Path 17" d="M536.707,1931.825l3.353,1.735a5.313,5.313,0,0,1,2.727,3.138c.328,1.115.84,1.91,2.722,1.506a6.244,6.244,0,0,1,4.255.381l3.353,1.736a5.262,5.262,0,0,1,2.908,3.755c.309,2.077.185.171,3.963,2.127l2.742,1.42a4.529,4.529,0,0,1,2.38,3.083,1.392,1.392,0,0,0,1.91.924,4.733,4.733,0,0,1,3.78.209l2.741,1.42a4.631,4.631,0,1,1-4.258,8.225l-2.742-1.419a4.744,4.744,0,0,1-2.406-3.2c-.239-1.042-.657-1.212-1.687-.882a5.12,5.12,0,0,1-3.977-.129l-2.741-1.419a4.416,4.416,0,0,1-2.257-2.645c-.312-1.076-.935-1.137-1.667-.927a5.319,5.319,0,0,1-3.9-.478l-3.353-1.735a5.382,5.382,0,0,1-2.951-3.956,1.379,1.379,0,0,0-1.993-.868,5.051,5.051,0,0,1-4.761-.2l-3.353-1.736a5.663,5.663,0,1,1,5.208-10.058Z" transform="translate(-20.221 -70.667)" fill="#fff" fill-rule="evenodd"/>
    <path id="Path_18" data-name="Path 18" d="M536.707,1931.825l3.353,1.735a5.313,5.313,0,0,1,2.727,3.138c.328,1.115.84,1.91,2.722,1.506a6.241,6.241,0,0,1,4.255.381l3.353,1.736a5.264,5.264,0,0,1,2.908,3.756c.309,2.077.185.17,3.963,2.127l2.742,1.42a4.529,4.529,0,0,1,2.38,3.083,1.393,1.393,0,0,0,1.91.924,4.733,4.733,0,0,1,3.78.209l2.741,1.419a4.631,4.631,0,1,1-4.258,8.225l-2.742-1.419a4.744,4.744,0,0,1-2.406-3.206c-.239-1.041-.657-1.211-1.687-.882a5.12,5.12,0,0,1-3.977-.129l-2.741-1.419a4.419,4.419,0,0,1-2.257-2.645c-.312-1.076-.934-1.137-1.666-.927a5.323,5.323,0,0,1-3.9-.478l-3.353-1.735a5.381,5.381,0,0,1-2.95-3.956,1.38,1.38,0,0,0-1.993-.868,5.051,5.051,0,0,1-4.761-.2l-3.353-1.736a5.663,5.663,0,1,1,5.208-10.058Z" transform="translate(-20.221 -70.667)" fill="none" stroke="#000" stroke-linecap="round" stroke-linejoin="round" stroke-width="1.453"/>
    <path id="Path_19" data-name="Path 19" d="M548.585,1921.334c.9,3.946,7.09,6.339,10.781,5.746.21-.034,2.812-.389,2.816-.389" transform="translate(-26.176 -67.752)" fill="none" stroke="#000" stroke-linecap="round" stroke-linejoin="round" stroke-width="1.453"/>
    <line id="Line_4" data-name="Line 4" x1="164.957" transform="translate(469.749 1791.083)" fill="none" stroke="#000" stroke-linecap="round" stroke-linejoin="round" stroke-width="1.456"/>
    <line id="Line_5" data-name="Line 5" x2="181.619" transform="translate(460.047 1892.063)" fill="none" stroke="#000" stroke-linecap="round" stroke-linejoin="round" stroke-width="1.447"/>
    <path id="Path_20" data-name="Path 20" d="M599.815,1692.173c-8.918,0-16.146,5.842-16.146,13.049a10.978,10.978,0,0,0,1.558,5.6c1.056,1.792.454,5.612-.8,7.593-.6.942,5.369,1.492,7.479-1.7a19.641,19.641,0,0,0,7.913,1.556,24.752,24.752,0,0,0,4.567-.53c6.693-1.592,11.579-6.595,11.579-12.519C615.962,1698.015,608.733,1692.173,599.815,1692.173Z" transform="translate(-36.549 0)" fill="#c1aa6a" fill-rule="evenodd"/>
    <path id="Path_21" data-name="Path 21" d="M599.815,1692.173c-8.918,0-16.146,5.842-16.146,13.049a10.978,10.978,0,0,0,1.558,5.6c1.056,1.792.454,5.612-.8,7.593-.6.942,5.369,1.492,7.479-1.7a19.641,19.641,0,0,0,7.913,1.556,24.752,24.752,0,0,0,4.567-.53c6.693-1.592,11.579-6.595,11.579-12.519C615.962,1698.015,608.733,1692.173,599.815,1692.173Z" transform="translate(-36.549 0)" fill="none" stroke="#000" stroke-linecap="round" stroke-linejoin="round" stroke-width="1.452"/>
    <path id="Path_22" data-name="Path 22" d="M512.815,1851.594l29.416-10.673c14.2-6.669,56.311-3.269,34.753,41.231,0,0-8.119,25.524-9.437,27.16l-35.271-10.272,4.88-18.757S513.014,1853.163,512.815,1851.594Z" transform="translate(-15.601 -43.199)" fill="#cce7d4" fill-rule="evenodd"/>
    <path id="Path_23" data-name="Path 23" d="M512.815,1851.594l29.416-10.673c14.2-6.669,56.311-3.269,34.753,41.231,0,0-8.119,25.524-9.437,27.16l-35.271-10.272,4.88-18.757S513.014,1853.163,512.815,1851.594Z" transform="translate(-15.601 -43.199)" fill="none" stroke="#000" stroke-linecap="round" stroke-linejoin="round" stroke-width="1.453"/>
    <path id="Path_24" data-name="Path 24" d="M558.416,1759.129l-.176-12.31a5.9,5.9,0,0,0,5.117-3.458c2.39-5.727-2.556-8.067-1.51-9.111,1.783-1.778.346-3.479-.892-3.4-2.9.179-5.3-2.9-7.483-5.471-8.156-9.588-25.926,4.1-13.939,15.056a39.464,39.464,0,0,0,5.488,3.655c.264.151-.074,15.142-.386,15.113C543.867,1759.107,558.416,1759.129,558.416,1759.129Z" transform="translate(-22.307 -8.858)" fill="#e2d1c6" fill-rule="evenodd"/>
    <path id="Path_25" data-name="Path 25" d="M558.416,1759.128l-.176-12.31a5.9,5.9,0,0,0,5.117-3.458c2.39-5.727-2.556-8.067-1.51-9.111,1.783-1.778.346-3.479-.892-3.4-2.9.179-5.3-2.9-7.484-5.471-8.156-9.589-25.926,4.1-13.939,15.056a39.453,39.453,0,0,0,5.488,3.655c.264.151-.073,15.142-.386,15.113C543.867,1759.107,558.416,1759.128,558.416,1759.128Z" transform="translate(-22.307 -8.858)" fill="none" stroke="#000" stroke-linecap="round" stroke-linejoin="round" stroke-width="1.453"/>
    <path id="Path_26" data-name="Path 26" d="M581.791,1811.439s-23.407-.215-24.039.01l-.387,13.591-60.835-.011c3.6-14.023,14.062-64.578,31.846-63.861,5.023.2,5.8,5.026,6.815,9.654h3.565c2.112-5.025,9.669-11.289,15.753-7.128,8.379,5.728,4.74,22.779,5.116,25.578l22.168,5.115Z" transform="translate(-10.786 -20.396)" fill="#c1aa6a" fill-rule="evenodd"/>
    <path id="Path_27" data-name="Path 27" d="M581.791,1811.439s-23.407-.215-24.039.01l-.387,13.591-60.835-.011c3.6-14.023,14.062-64.578,31.846-63.861,5.023.2,5.8,5.026,6.815,9.654h3.565c2.112-5.025,9.669-11.289,15.753-7.128,8.379,5.728,4.74,22.779,5.116,25.578l22.168,5.115Z" transform="translate(-10.786 -20.396)" fill="none" stroke="#000" stroke-linecap="round" stroke-linejoin="round" stroke-width="1.453"/>
    <path id="Path_28" data-name="Path 28" d="M564.67,1733.933a.589.589,0,1,0,.769.322A.59.59,0,0,0,564.67,1733.933Z" transform="translate(-30.823 -12.333)" fill-rule="evenodd"/>
    <path id="Path_29" data-name="Path 29" d="M564.67,1733.933a.589.589,0,1,0,.769.322A.59.59,0,0,0,564.67,1733.933Z" transform="translate(-30.823 -12.333)" fill="none" stroke="#000" stroke-linecap="round" stroke-linejoin="round" stroke-width="1.452"/>
    <path id="Path_30" data-name="Path 30" d="M551.659,1738.662a1.723,1.723,0,0,0-.276-.063,1.624,1.624,0,1,0,1.385,1.833" transform="translate(-26.457 -13.721)" fill="none" stroke="#000" stroke-linecap="round" stroke-linejoin="round" stroke-width="1.452"/>
    <path id="Path_31" data-name="Path 31" d="M566.982,1757.017a3.819,3.819,0,0,1-2.242-.605" transform="translate(-30.952 -18.992)" fill="none" stroke="#000" stroke-linecap="round" stroke-linejoin="round" stroke-width="1.452"/>
    <path id="Path_32" data-name="Path 32" d="M562.174,1727.461a3.009,3.009,0,0,0-1.676,1.206" transform="translate(-29.698 -10.433)" fill="none" stroke="#000" stroke-linecap="round" stroke-linejoin="round" stroke-width="1.453"/>
    <path id="Path_33" data-name="Path 33" d="M574.29,1746.662c-1.06,1.323-2.759,1.35-4.509.608" transform="translate(-32.443 -16.109)" fill="none" stroke="#000" stroke-linecap="round" stroke-linejoin="round" stroke-width="1.452"/>
    <path id="Path_34" data-name="Path 34" d="M470.429,1773.671c-.1-1.044.673-4.269,3.546-4.641,6.655-1.909,1.093-6.832,7.8-9,6.631-2.139,1.478-9.65,8.9-10.749,4.981-.737,1.786-5.187,4.591-7.842,2.572-2.433,6.607-1.111,7.287-4.182.947-4.267,1.276-6.757,5.057-7.36,4.283-.682,4.732-1.219,6.426-4.435,4.078-7.741,14.688-7.949,17.145-4.656,3.921,5.948-4.675,8.786.57,15.825,5.091,6.833-5.918,7.406-.175,15.2a7.816,7.816,0,0,1-.33,8.816c-4.59,5.969,4.1,7.227.367,12.746Z" transform="translate(-3.067 -7.87)" fill-rule="evenodd"/>
    <path id="Path_35" data-name="Path 35" d="M470.429,1773.671c-.1-1.044.673-4.269,3.546-4.641,6.655-1.909,1.093-6.832,7.8-9,6.631-2.139,1.478-9.65,8.9-10.749,4.981-.737,1.786-5.187,4.591-7.842,2.572-2.433,6.607-1.111,7.287-4.182.947-4.267,1.276-6.757,5.057-7.36,4.283-.682,4.732-1.219,6.426-4.435,4.078-7.741,14.688-7.949,17.145-4.656,3.921,5.948-4.675,8.786.57,15.825,5.091,6.833-5.918,7.406-.175,15.2a7.816,7.816,0,0,1-.33,8.816c-4.59,5.969,4.1,7.227.367,12.746Z" transform="translate(-3.067 -7.87)" fill="none" stroke="#000" stroke-linecap="round" stroke-linejoin="round" stroke-width="1.453"/>
    <path id="Path_36" data-name="Path 36" d="M555,1735.015a5.321,5.321,0,1,0,5.321,5.321A5.32,5.32,0,0,0,555,1735.015Z" transform="translate(-26.498 -12.666)" fill="#ed3237" fill-rule="evenodd"/>
    <path id="Path_37" data-name="Path 37" d="M555,1735.015a5.321,5.321,0,1,0,5.321,5.321A5.32,5.32,0,0,0,555,1735.015Z" transform="translate(-26.498 -12.666)" fill="none" stroke="#000" stroke-linecap="round" stroke-linejoin="round" stroke-width="1.452"/>
    <path id="Path_38" data-name="Path 38" d="M547.752,1730.767l-10.364-16.345c-1.836-2.659-5.936-3.272-7.029.521-.66,2.288,1.6,4.553,1.8,5.143" transform="translate(-20.752 -5.939)" fill="none" stroke="#ed3237" stroke-linecap="round" stroke-linejoin="round" stroke-width="1.453"/>
    <path id="Path_39" data-name="Path 39" d="M548.049,1805.561c-.874,20.437,18.188,19.339,24.926,19.015" transform="translate(-26.009 -33.523)" fill="none" stroke="#000" stroke-linecap="round" stroke-linejoin="round" stroke-width="1.453"/>
    <rect id="Rectangle_21" data-name="Rectangle 21" width="43.989" height="10.251" rx="5.125" transform="translate(487.442 1840.915)" fill="#fff"/>
    <rect id="Rectangle_22" data-name="Rectangle 22" width="43.989" height="10.251" rx="5.125" transform="translate(487.442 1840.915)" fill="none" stroke="#000" stroke-linecap="round" stroke-linejoin="round" stroke-width="1.452"/>
    <rect id="Rectangle_23" data-name="Rectangle 23" width="5.526" height="25.159" transform="translate(505.788 1851.166)" fill="#fff"/>
    <rect id="Rectangle_24" data-name="Rectangle 24" width="5.526" height="25.159" transform="translate(505.788 1851.166)" fill="none" stroke="#000" stroke-linecap="round" stroke-linejoin="round" stroke-width="1.452"/>
    <path id="Path_40" data-name="Path 40" d="M529.053,1953.012h2.453l7.234,9.8c1.9,2.37,3.059,3.751,3.148,5.637a4.484,4.484,0,0,1,.066.593h-3.837a5.67,5.67,0,0,0-1.459-3.284l-7.6-9.971Z" transform="translate(-20.402 -77.117)" fill="#fff" fill-rule="evenodd"/>
    <path id="Path_41" data-name="Path 41" d="M529.053,1953.012h2.453l7.234,9.8c1.9,2.37,3.059,3.751,3.148,5.637a4.484,4.484,0,0,1,.066.593h-3.837a5.67,5.67,0,0,0-1.459-3.284l-7.6-9.971Z" transform="translate(-20.402 -77.117)" fill="none" stroke="#000" stroke-linecap="round" stroke-linejoin="round" stroke-width="1.453"/>
    <path id="Path_42" data-name="Path 42" d="M518.184,1953.012h-2.453l-18.543,10.341c-2.859,1.711-4.2,3.21-4.292,5.1a4.628,4.628,0,0,0-.066.593h4.5c0-1.173.132-2.825,1.459-3.284l19.395-9.971Z" transform="translate(-9.693 -77.117)" fill="#fff" fill-rule="evenodd"/>
    <path id="Path_43" data-name="Path 43" d="M518.184,1953.012h-2.453l-18.543,10.341c-2.859,1.711-4.2,3.21-4.292,5.1a4.628,4.628,0,0,0-.066.593h4.5c0-1.173.132-2.825,1.459-3.284l19.395-9.971Z" transform="translate(-9.693 -77.117)" fill="none" stroke="#000" stroke-linecap="round" stroke-linejoin="round" stroke-width="1.453"/>
    <path id="Path_44" data-name="Path 44" d="M529.087,1953.012h2.453l18.543,10.341c2.859,1.711,4.2,3.21,4.292,5.1a4.471,4.471,0,0,1,.066.593h-4.5c0-1.173-.132-2.825-1.459-3.284l-19.395-9.971Z" transform="translate(-20.412 -77.117)" fill="#fff" fill-rule="evenodd"/>
    <path id="Path_45" data-name="Path 45" d="M529.087,1953.012h2.453l18.543,10.341c2.859,1.711,4.2,3.21,4.292,5.1a4.471,4.471,0,0,1,.066.593h-4.5c0-1.173-.132-2.825-1.459-3.284l-19.395-9.971Z" transform="translate(-20.412 -77.117)" fill="none" stroke="#000" stroke-linecap="round" stroke-linejoin="round" stroke-width="1.453"/>
    <path id="Path_46" data-name="Path 46" d="M523.958,1953.012h-2.453l-7.234,9.8c-1.9,2.37-3.059,3.751-3.148,5.637a4.472,4.472,0,0,0-.066.593h3.837a5.67,5.67,0,0,1,1.459-3.284l7.6-9.971Z" transform="translate(-15.081 -77.117)" fill="#fff" fill-rule="evenodd"/>
    <path id="Path_47" data-name="Path 47" d="M523.958,1953.012h-2.453l-7.234,9.8c-1.9,2.37-3.059,3.751-3.148,5.637a4.472,4.472,0,0,0-.066.593h3.837a5.67,5.67,0,0,1,1.459-3.284l7.6-9.971Z" transform="translate(-15.081 -77.117)" fill="none" stroke="#000" stroke-linecap="round" stroke-linejoin="round" stroke-width="1.453"/>
    <line id="Line_6" data-name="Line 6" x1="0.586" y2="6.569" transform="translate(548.244 1766.138)" fill="none" stroke="#000" stroke-linecap="round" stroke-linejoin="round" stroke-width="1.453"/>
    <path id="Path_48" data-name="Path 48" d="M636.4,1748.414c8.918,0,16.147,5.842,16.147,13.049a10.97,10.97,0,0,1-1.559,5.6c-1.056,1.793-.454,5.612.805,7.593.6.942-5.369,1.491-7.48-1.7a19.639,19.639,0,0,1-7.913,1.556,24.745,24.745,0,0,1-4.566-.53c-6.693-1.592-11.58-6.594-11.58-12.519C620.252,1754.256,627.481,1748.414,636.4,1748.414Z" transform="translate(-47.365 -16.628)" fill="#fff" fill-rule="evenodd"/>
    <path id="Path_49" data-name="Path 49" d="M636.4,1748.414c8.918,0,16.147,5.842,16.147,13.049a10.97,10.97,0,0,1-1.559,5.6c-1.056,1.793-.454,5.612.805,7.593.6.942-5.369,1.491-7.48-1.7a19.639,19.639,0,0,1-7.913,1.556,24.745,24.745,0,0,1-4.566-.53c-6.693-1.592-11.58-6.594-11.58-12.519C620.252,1754.256,627.481,1748.414,636.4,1748.414Z" transform="translate(-47.365 -16.628)" fill="none" stroke="#000" stroke-linecap="round" stroke-linejoin="round" stroke-width="1.452"/>
    <path id="Path_50" data-name="Path 50" d="M651.717,1818.8c-1.524-.926-3.963-2.521-3.963-4.219,0-.514.282-2.1.884-2.3,1.564.515,5.693,1.258,6.8,2.953C657.163,1817.878,653.47,1819.865,651.717,1818.8Z" transform="translate(-55.496 -35.51)" fill="#c48f6c" fill-rule="evenodd"/>
    <path id="Path_51" data-name="Path 51" d="M651.717,1818.8c-1.524-.926-3.963-2.521-3.963-4.219,0-.514.282-2.1.884-2.3,1.564.515,5.693,1.258,6.8,2.953C657.163,1817.878,653.47,1819.865,651.717,1818.8Z" transform="translate(-55.496 -35.51)" fill="none" stroke="#000" stroke-linecap="round" stroke-linejoin="round" stroke-width="1.456"/>
    <path id="Path_52" data-name="Path 52" d="M637.733,1819.934c-.328,3.347,4.11,7.477,6.6,3,.456-.819.149-4.636-.484-4.648-.609-.01-5.269.766-5.685,1.2A5.932,5.932,0,0,0,637.733,1819.934Z" transform="translate(-52.528 -37.286)" fill="#c48f6c" fill-rule="evenodd"/>
    <path id="Path_53" data-name="Path 53" d="M637.733,1819.934c-.328,3.347,4.111,7.477,6.6,3,.456-.819.149-4.636-.484-4.648-.609-.01-5.269.766-5.685,1.2A5.9,5.9,0,0,0,637.733,1819.934Z" transform="translate(-52.528 -37.286)" fill="none" stroke="#000" stroke-linecap="round" stroke-linejoin="round" stroke-width="1.456"/>
    <path id="Path_54" data-name="Path 54" d="M617.539,1823.3v-14.917c2.653-.042,13.681.787,15.861.955,2.605.2,5.5.026,7.565,1.5a5.734,5.734,0,0,1,2.306,3.063c.5,1.53,1.024,5.781-.861,6.769-3.449,1.805-4.745-1.49-5.28-3.17C636.844,1816.595,618.979,1823.068,617.539,1823.3Z" transform="translate(-46.562 -34.358)" fill="#c48f6c" fill-rule="evenodd"/>
    <path id="Path_55" data-name="Path 55" d="M617.539,1823.3v-14.917c2.653-.042,13.681.787,15.862.955,2.6.2,5.5.026,7.565,1.5a5.734,5.734,0,0,1,2.306,3.063c.5,1.53,1.024,5.781-.861,6.768-3.449,1.806-4.745-1.489-5.28-3.17C636.844,1816.595,618.979,1823.068,617.539,1823.3Z" transform="translate(-46.562 -34.358)" fill="none" stroke="#000" stroke-linecap="round" stroke-linejoin="round" stroke-width="1.456"/>
    <path id="Path_56" data-name="Path 56" d="M495.847,1851.566l64.8.26c20.461,0,30.008,15.786,37.511,32.4.647,1.433,7.006,14.762,7.006,14.762l-39.733,15.073-16.721-26.425c-.768.065-23.444.4-34.093.4C497.565,1888.032,490.733,1870.583,495.847,1851.566Z" transform="translate(-10.094 -47.125)" fill="#c1aa6a" fill-rule="evenodd"/>
    <path id="Path_57" data-name="Path 57" d="M495.847,1851.566l64.8.26c20.461,0,30.008,15.786,37.512,32.4.647,1.432,7.006,14.762,7.006,14.762l-39.733,15.073-16.721-26.425c-.768.065-23.444.4-34.093.4C497.566,1888.032,490.733,1870.583,495.847,1851.566Z" transform="translate(-10.094 -47.125)" fill="none" stroke="#000" stroke-linecap="round" stroke-linejoin="round" stroke-width="1.449"/>
    <path id="Path_58" data-name="Path 58" d="M571.051,1898.427c-.328-.47-.535-5.55,1.116-8.849" transform="translate(-32.751 -58.363)" fill="none" stroke="#000" stroke-linecap="round" stroke-linejoin="round" stroke-width="1.453"/>
    <path id="Path_59" data-name="Path 59" d="M571.57,1899.535c.017-.573,2.887-4.769,6.184-6.427" transform="translate(-32.972 -59.407)" fill="none" stroke="#000" stroke-linecap="round" stroke-linejoin="round" stroke-width="1.453"/>
    <path id="Path_60" data-name="Path 60" d="M615.414,1956.541l1.374-4.111c.658-3.107,1.221-9.412-.233-12.006-3.029-5.4,2.07-5.963,4.112-3.4,6.917,5.647,7.035,5.705,13.632-1.045,2.866-2.933,5.885-3.26,7.436,1.221,1.855,5.356,20.876,7.26,22.461,17.609a2.493,2.493,0,0,0-.372,1.729Z" transform="translate(-45.934 -71.438)" fill="#ff0" fill-rule="evenodd"/>
    <path id="Path_61" data-name="Path 61" d="M615.414,1956.541l1.374-4.111c.658-3.107,1.221-9.412-.233-12.006-3.029-5.4,2.07-5.963,4.112-3.4,6.917,5.647,7.035,5.705,13.632-1.045,2.866-2.933,5.885-3.26,7.436,1.221,1.855,5.356,20.876,7.26,22.461,17.609a2.493,2.493,0,0,0-.372,1.729Z" transform="translate(-45.934 -71.438)" fill="none" stroke="#000" stroke-linecap="round" stroke-linejoin="round" stroke-width="1.453"/>
    <path id="Path_62" data-name="Path 62" d="M618.4,1959.659h3.776a5.319,5.319,0,0,1,3.864,1.532c.8.84,1.623,1.311,3.11.086a6.244,6.244,0,0,1,3.954-1.619h3.776a5.261,5.261,0,0,1,4.308,2c1.23,1.7.243.067,4.5.067h3.087a4.532,4.532,0,0,1,3.532,1.643,1.392,1.392,0,0,0,2.122-.057,4.732,4.732,0,0,1,3.452-1.552h3.087a4.631,4.631,0,1,1,0,9.262h-3.087a4.746,4.746,0,0,1-3.611-1.74c-.691-.814-1.14-.772-1.9-.008a5.12,5.12,0,0,1-3.591,1.714h-3.087a4.42,4.42,0,0,1-3.221-1.311,1.155,1.155,0,0,0-1.9-.057,5.322,5.322,0,0,1-3.681,1.368H633.1a5.381,5.381,0,0,1-4.439-2.157,1.38,1.38,0,0,0-2.169.145,5.052,5.052,0,0,1-4.32,2.012H618.4a5.664,5.664,0,1,1,0-11.327Z" transform="translate(-45.142 -79.083)" fill="#fff" fill-rule="evenodd"/>
    <path id="Path_63" data-name="Path 63" d="M618.4,1959.659h3.776a5.319,5.319,0,0,1,3.864,1.532c.8.84,1.623,1.311,3.11.086a6.244,6.244,0,0,1,3.954-1.619h3.776a5.261,5.261,0,0,1,4.308,2c1.23,1.7.243.067,4.5.067h3.087a4.532,4.532,0,0,1,3.532,1.643,1.392,1.392,0,0,0,2.122-.057,4.732,4.732,0,0,1,3.452-1.552h3.087a4.631,4.631,0,1,1,0,9.262h-3.087a4.746,4.746,0,0,1-3.611-1.74c-.691-.814-1.14-.772-1.9-.008a5.12,5.12,0,0,1-3.591,1.714h-3.087a4.42,4.42,0,0,1-3.221-1.311,1.155,1.155,0,0,0-1.9-.057,5.322,5.322,0,0,1-3.681,1.368H633.1a5.381,5.381,0,0,1-4.439-2.157,1.38,1.38,0,0,0-2.169.145,5.052,5.052,0,0,1-4.32,2.012H618.4a5.664,5.664,0,1,1,0-11.327Z" transform="translate(-45.142 -79.083)" fill="none" stroke="#000" stroke-linecap="round" stroke-linejoin="round" stroke-width="1.453"/>
    <path id="Path_64" data-name="Path 64" d="M623.275,1945.633c2.617,3.089,9.211,2.369,12.215.145.171-.127,2.319-1.639,2.322-1.64" transform="translate(-48.258 -74.494)" fill="none" stroke="#000" stroke-linecap="round" stroke-linejoin="round" stroke-width="1.453"/>
  </g>
</svg>
